<?xml version="1.0" encoding="UTF-8"?>
<svg width="600" height="400" viewBox="0 0 600 400" xmlns="http://www.w3.org/2000/svg">
  <!-- Background -->
  <rect width="600" height="400" fill="white" />
  
  <!-- Header -->
  <rect x="0" y="0" width="600" height="80" fill="#6366f1" />
  <text x="50" y="50" font-family="Arial" font-size="24" font-weight="bold" fill="white">React Demo App</text>
  <rect x="450" y="25" width="100" height="30" rx="15" fill="white" />
  <text x="475" y="45" font-family="Arial" font-size="14" fill="#6366f1">Sign In</text>
  
  <!-- Nav Menu -->
  <rect x="200" y="30" width="200" height="20" rx="5" fill="none" />
  <text x="200" y="45" font-family="Arial" font-size="14" fill="white">Home</text>
  <text x="260" y="45" font-family="Arial" font-size="14" fill="rgba(255,255,255,0.8)">Features</text>
  <text x="340" y="45" font-family="Arial" font-size="14" fill="rgba(255,255,255,0.8)">About</text>
  
  <!-- Hero -->
  <rect x="50" y="100" width="500" height="80" rx="5" fill="#f8fafc" />
  <text x="80" y="140" font-family="Arial" font-size="24" font-weight="bold" fill="#0f172a">Welcome to Our Product</text>
  <text x="80" y="165" font-family="Arial" font-size="14" fill="#475569">The easiest way to build amazing applications</text>
  
  <!-- Card Grid -->
  <rect x="50" y="200" width="160" height="180" rx="8" fill="white" stroke="#e2e8f0" stroke-width="2" />
  <rect x="50" y="200" width="160" height="80" rx="8" fill="#f1f5f9" />
  <text x="70" y="240" font-family="Arial" font-size="16" font-weight="bold" fill="#334155">Feature One</text>
  <text x="70" y="300" font-family="Arial" font-size="14" fill="#475569">Description of our first amazing feature.</text>
  <rect x="70" y="340" width="120" height="30" rx="15" fill="#6366f1" />
  <text x="95" y="360" font-family="Arial" font-size="14" fill="white">Learn More</text>
  
  <rect x="220" y="200" width="160" height="180" rx="8" fill="white" stroke="#e2e8f0" stroke-width="2" />
  <rect x="220" y="200" width="160" height="80" rx="8" fill="#f1f5f9" />
  <text x="240" y="240" font-family="Arial" font-size="16" font-weight="bold" fill="#334155">Feature Two</text>
  <text x="240" y="300" font-family="Arial" font-size="14" fill="#475569">Description of our second amazing feature.</text>
  <rect x="240" y="340" width="120" height="30" rx="15" fill="#6366f1" />
  <text x="265" y="360" font-family="Arial" font-size="14" fill="white">Learn More</text>
  
  <rect x="390" y="200" width="160" height="180" rx="8" fill="white" stroke="#e2e8f0" stroke-width="2" />
  <rect x="390" y="200" width="160" height="80" rx="8" fill="#f1f5f9" />
  <text x="410" y="240" font-family="Arial" font-size="16" font-weight="bold" fill="#334155">Feature Three</text>
  <text x="410" y="300" font-family="Arial" font-size="14" fill="#475569">Description of our third amazing feature.</text>
  <rect x="410" y="340" width="120" height="30" rx="15" fill="#6366f1" />
  <text x="435" y="360" font-family="Arial" font-size="14" fill="white">Learn More</text>
  
  <!-- Debug Outline and Tooltip - Showing the feature of the plugin -->
  <rect x="70" y="340" width="120" height="30" rx="15" fill="none" stroke="#f97316" stroke-width="2" stroke-dasharray="3,3" />
  <rect x="70" y="300" width="200" height="30" rx="5" fill="#1e293b" opacity="0.9" />
  <text x="80" y="320" font-family="Courier New" font-size="12" fill="white">Button in Card (Button.jsx:7)</text>
</svg> 